# xmcd CD database file
#
# Track frame offsets:
#	150
#	22823
#	32601
#	51995
#	74592
#
# Disc length: 1122 seconds
#
# Revision: 4
# Processed by: cddbd v1.5.2PL0 Copyright (c) Steve Scherf et al.
# Submitted via: CDex 1.70beta3
#
DISCID=3c046005
DTITLE=山下達郎 - ずっと一緒さ
DYEAR=2008
DGENRE=JPop
TTITLE0=ずっと一緒さ
TTITLE1=バラ色の人生 ～ラヴィアンローズ
TTITLE2=ANGEL OF THE LIGHT (Single Version)
TTITLE3=ずっと一緒さ (Original Karaoke)
TTITLE4=バラ色の人生 (Original Karaoke)
EXTD=YEAR: 2008
EXTT0=
EXTT1=
EXTT2=
EXTT3=
EXTT4=
PLAYORDER=
